HIERARCHY
ROOT Hips
{
  OFFSET 5.72205e-005 65.662 3.42586
  CHANNELS 6 Xposition Yposition Zposition Zrotation Xrotation Yrotation
  JOINT Chest
  {
    OFFSET 0 8.7983 -4.7612
    CHANNELS 3 Zrotation Xrotation Yrotation
    JOINT Chest2
    {
      OFFSET 0 8.0291 0.4195
      CHANNELS 3 Zrotation Xrotation Yrotation
      JOINT Chest3
      {
        OFFSET 0 9.9351 -2.2114
        CHANNELS 3 Zrotation Xrotation Yrotation
        JOINT Neck
        {
          OFFSET 0 22.3885 -0.4656
          CHANNELS 3 Zrotation Xrotation Yrotation
          JOINT Head
          {
            OFFSET -0.0001 12.643 3.4389
            CHANNELS 3 Zrotation Xrotation Yrotation
            End Site
            {
              OFFSET 0.0001 17.6655 0.5274
            }
          }
        }
        JOINT LeftCollar
        {
          OFFSET 2.2603 21.606 7.4023
          CHANNELS 3 Zrotation Xrotation Yrotation
          JOINT LeftShoulder
          {
            OFFSET 13.5163 -1.1332 -5.0146
            CHANNELS 3 Zrotation Xrotation Yrotation
            JOINT LeftElbow
            {
              OFFSET -0.0995 -28.05 -0.2431
              CHANNELS 3 Zrotation Xrotation Yrotation
              JOINT LeftWrist
              {
                OFFSET 0.0679 -23.3996 -0.1402
                CHANNELS 3 Zrotation Xrotation Yrotation
                JOINT LeftFinger1
                {
                  OFFSET 0.7932 -9.069 2.5189
                  CHANNELS 3 Zrotation Xrotation Yrotation
                  JOINT LeftFinger11
                  {
                    OFFSET -0.8272 -3.3923 0.5977
                    CHANNELS 3 Zrotation Xrotation Yrotation
                    JOINT LeftFinger12
                    {
                      OFFSET -0.5649 -2.3158 0.4082
                      CHANNELS 3 Zrotation Xrotation Yrotation
                      End Site
                      {
                        OFFSET -0.4919 -1.6479 0.2673
                      }
                    }
                  }
                }
                JOINT LeftFinger2
                {
                  OFFSET 0.9159 -9.2044 0.2193
                  CHANNELS 3 Zrotation Xrotation Yrotation
                  JOINT LeftFinger21
                  {
                    OFFSET 0.0117 -4.1944 -0.0248
                    CHANNELS 3 Zrotation Xrotation Yrotation
                    JOINT LeftFinger22
                    {
                      OFFSET 0.0071 -2.3249 -0.0142
                      CHANNELS 3 Zrotation Xrotation Yrotation
                      End Site
                      {
                        OFFSET -0.1475 -2.0882 0.0028
                      }
                    }
                  }
                }
                JOINT LeftFinger3
                {
                  OFFSET 0.6113 -8.7231 -2.0637
                  CHANNELS 3 Zrotation Xrotation Yrotation
                  JOINT LeftFinger31
                  {
                    OFFSET -0.1927 -3.8059 -0.2383
                    CHANNELS 3 Zrotation Xrotation Yrotation
                    JOINT LeftFinger32
                    {
                      OFFSET -0.1091 -2.1688 -0.1362
                      CHANNELS 3 Zrotation Xrotation Yrotation
                      End Site
                      {
                        OFFSET -0.2358 -1.9176 -0.0906
                      }
                    }
                  }
                }
                JOINT LeftFinger4
                {
                  OFFSET -0.6151 -8.0947 -3.5641
                  CHANNELS 3 Zrotation Xrotation Yrotation
                  JOINT LeftFinger41
                  {
                    OFFSET -0.4882 -2.341 -0.6462
                    CHANNELS 3 Zrotation Xrotation Yrotation
                    JOINT LeftFinger42
                    {
                      OFFSET -0.3575 -1.7167 -0.4742
                      CHANNELS 3 Zrotation Xrotation Yrotation
                      End Site
                      {
                        OFFSET -0.4187 -1.5237 -0.3496
                      }
                    }
                  }
                }
                JOINT LeftFinger0
                {
                  OFFSET -1.42 -1.8761 1.4223
                  CHANNELS 3 Zrotation Xrotation Yrotation
                  JOINT LeftFinger01
                  {
                    OFFSET -1.1471 -3.4929 2.6334
                    CHANNELS 3 Zrotation Xrotation Yrotation
                    JOINT LeftFinger02
                    {
                      OFFSET -0.823 -2.3 1.6571
                      CHANNELS 3 Zrotation Xrotation Yrotation
                      End Site
                      {
                        OFFSET -0.5822 -1.6914 1.1582
                      }
                    }
                  }
                }
              }
            }
          }
        }
        JOINT RightCollar
        {
          OFFSET -2.2603 21.606 7.4023
          CHANNELS 3 Zrotation Xrotation Yrotation
          JOINT RightShoulder
          {
            OFFSET -13.5187 -1.1334 -5.0155
            CHANNELS 3 Zrotation Xrotation Yrotation
            JOINT RightElbow
            {
              OFFSET 0.0994 -28.0499 -0.2431
              CHANNELS 3 Zrotation Xrotation Yrotation
              JOINT RightWrist
              {
                OFFSET -0.0679 -23.3996 -0.1402
                CHANNELS 3 Zrotation Xrotation Yrotation
                JOINT RightFinger1
                {
                  OFFSET -0.7932 -9.0691 2.5189
                  CHANNELS 3 Zrotation Xrotation Yrotation
                  JOINT RightFinger11
                  {
                    OFFSET 0.8272 -3.3923 0.5977
                    CHANNELS 3 Zrotation Xrotation Yrotation
                    JOINT RightFinger12
                    {
                      OFFSET 0.565 -2.3158 0.4082
                      CHANNELS 3 Zrotation Xrotation Yrotation
                      End Site
                      {
                        OFFSET 0.4919 -1.6479 0.2673
                      }
                    }
                  }
                }
                JOINT RightFinger2
                {
                  OFFSET -0.916 -9.2044 0.2193
                  CHANNELS 3 Zrotation Xrotation Yrotation
                  JOINT RightFinger21
                  {
                    OFFSET -0.0117 -4.1944 -0.0248
                    CHANNELS 3 Zrotation Xrotation Yrotation
                    JOINT RightFinger22
                    {
                      OFFSET -0.0071 -2.3249 -0.0142
                      CHANNELS 3 Zrotation Xrotation Yrotation
                      End Site
                      {
                        OFFSET 0.1475 -2.0882 0.0028
                      }
                    }
                  }
                }
                JOINT RightFinger3
                {
                  OFFSET -0.6113 -8.7231 -2.0637
                  CHANNELS 3 Zrotation Xrotation Yrotation
                  JOINT RightFinger31
                  {
                    OFFSET 0.1927 -3.8059 -0.2383
                    CHANNELS 3 Zrotation Xrotation Yrotation
                    JOINT RightFinger32
                    {
                      OFFSET 0.1091 -2.1688 -0.1362
                      CHANNELS 3 Zrotation Xrotation Yrotation
                      End Site
                      {
                        OFFSET 0.2358 -1.9176 -0.0906
                      }
                    }
                  }
                }
                JOINT RightFinger4
                {
                  OFFSET 0.6151 -8.0947 -3.564
                  CHANNELS 3 Zrotation Xrotation Yrotation
                  JOINT RightFinger41
                  {
                    OFFSET 0.4882 -2.341 -0.6462
                    CHANNELS 3 Zrotation Xrotation Yrotation
                    JOINT RightFinger42
                    {
                      OFFSET 0.3574 -1.7166 -0.4742
                      CHANNELS 3 Zrotation Xrotation Yrotation
                      End Site
                      {
                        OFFSET 0.4187 -1.5237 -0.3496
                      }
                    }
                  }
                }
                JOINT RightFinger0
                {
                  OFFSET 1.4199 -1.8761 1.4221
                  CHANNELS 3 Zrotation Xrotation Yrotation
                  JOINT RightFinger01
                  {
                    OFFSET 1.1472 -3.4929 2.6336
                    CHANNELS 3 Zrotation Xrotation Yrotation
                    JOINT RightFinger02
                    {
                      OFFSET 0.8229 -2.3 1.6571
                      CHANNELS 3 Zrotation Xrotation Yrotation
                      End Site
                      {
                        OFFSET 0.5822 -1.6914 1.1582
                      }
                    }
                  }
                }
              }
            }
          }
        }
      }
    }
  }
  JOINT RightHip
  {
    OFFSET -9.412 3.9771 -0.7758
    CHANNELS 3 Zrotation Xrotation Yrotation
    JOINT RightKnee
    {
      OFFSET -0.7531 -40.938 0
      CHANNELS 3 Zrotation Xrotation Yrotation
      JOINT RightAnkle
      {
        OFFSET 0 -40.1986 0
        CHANNELS 3 Zrotation Xrotation Yrotation
        JOINT RightToe
        {
          OFFSET 0 -4.4182 9.239
          CHANNELS 3 Zrotation Xrotation Yrotation
          End Site
          {
            OFFSET 0 0 6.1981
          }
        }
      }
    }
  }
  JOINT LeftHip
  {
    OFFSET 9.4119 3.9773 -0.7758
    CHANNELS 3 Zrotation Xrotation Yrotation
    JOINT LeftKnee
    {
      OFFSET 0.7532 -40.9383 0
      CHANNELS 3 Zrotation Xrotation Yrotation
      JOINT LeftAnkle
      {
        OFFSET 0 -40.1986 0
        CHANNELS 3 Zrotation Xrotation Yrotation
        JOINT LeftToe
        {
          OFFSET 0 -4.4182 9.239
          CHANNELS 3 Zrotation Xrotation Yrotation
          End Site
          {
            OFFSET 0 0 6.1981
          }
        }
      }
    }
  }
}
MOTION
Frames:	5
Frame Time:	0.0333333
39.8403 65.2182 48.517 180 75.0041 -180 -0.31573 2.66703 -0.883473 -0.591165 5.33859 -1.75506 -0.591166 5.33857 -1.75506 -5.83798e-006 -7.76704 -1.04669e-005 -4.52131e-007 -14.5782 -7.78949e-007 -61.2983 42.6545 1.67781 54.8734 4.91332 -41.6985 13.3809 -46.8157 3.18293 37.2109 0.938437 8.91581 -1.59028e-015 -3.18055e-015 -0 3.18055e-015 0 -7.15625e-015 1.59028e-015 -6.36111e-015 -3.18055e-015 -1.59028e-015 -3.18055e-015 -0 -0.0128685 0.00231503 8.32252e-005 -4.77083e-015 -2.54444e-014 -3.18055e-015 -1.59028e-015 -3.18055e-015 -0 -0.0161398 0.00299211 0.000860519 -0 -3.18055e-015 -0 -1.59028e-015 -3.18055e-015 -0 -0.0124817 0.00308315 0.00279673 -3.18055e-015 -3.18055e-015 3.97569e-015 -1.59028e-015 -3.18055e-015 -0 3.18055e-015 0 -7.15625e-015 1.59028e-015 -6.36111e-015 -3.18055e-015 61.9346 43.4827 -10.6676 -55.9426 1.43864 44.8432 -16.6975 -40.1776 -5.39785 -35.4862 2.8593 -6.7404 -3.38781e-006 2.60245e-006 2.77855e-007 -1.40979e-006 -1.28593e-005 -3.19594e-006 -7.95139e-016 -2.38542e-015 -6.85807e-015 -3.38781e-006 2.60245e-006 2.77855e-007 0.0129603 0.00232155 -9.34398e-005 -7.95139e-016 -1.59028e-015 -6.36111e-015 -3.38781e-006 2.60245e-006 2.77855e-007 0.0162209 0.00302 -0.000873552 -1.65521e-032 -7.95139e-016 -1.19271e-015 -3.38781e-006 2.60245e-006 2.77855e-007 0.0144565 0.00363889 -0.00324862 7.95139e-016 7.95139e-016 1.39149e-014 -3.38781e-006 2.60245e-006 2.77855e-007 -1.40979e-006 -1.28593e-005 -3.19594e-006 -7.95139e-016 -2.38542e-015 -6.85807e-015 -163.851 -77.6822 -162.67 4.74786 0.00232525 -0.379439 -5.67573 -2.5225 -7.1508 -4.25673e-007 6.39708e-008 -1.49664e-009 162.706 -76.935 163.369 -5.7003 1.42076 0.393888 6.06961 -3.33426 5.40892 4.25691e-007 1.17982e-007 1.42513e-009 
39.8403 65.2182 48.5646 180 75.0041 -180 -0.318769 2.85791 -0.883999 -0.594401 5.72033 -1.75533 -0.594403 5.72037 -1.75533 2.65522e-006 -8.55633 5.0435e-006 -6.57855e-007 -15.284 -4.52342e-007 -61.1686 42.2247 1.10832 55.0298 4.83929 -41.6764 13.1495 -46.0265 3.03282 37.4883 0.30139 9.06875 7.85602e-007 -9.16606e-006 -2.79217e-007 1.94813e-006 1.19083e-005 3.89993e-006 -4.90207e-006 -1.29859e-005 -5.53881e-007 7.85602e-007 -9.16606e-006 -2.79217e-007 -0.0127653 0.00231638 9.19441e-005 -1.57114e-006 -7.0121e-006 5.5837e-007 7.85602e-007 -9.16606e-006 -2.79217e-007 -0.0160327 0.00300302 0.000855442 -6.28452e-006 -4.48808e-006 2.23338e-006 7.85602e-007 -9.16606e-006 -2.79217e-007 -0.0126366 0.00314313 0.00284626 -8.93302e-006 -8.50691e-006 -2.43405e-006 7.85602e-007 -9.16606e-006 -2.79217e-007 1.94813e-006 1.19083e-005 3.89993e-006 -4.90207e-006 -1.29859e-005 -5.53881e-007 61.903 42.979 -9.99573 -56.1372 1.36749 44.8025 -16.2796 -39.2079 -5.12448 -35.8298 2.1401 -7.05164 -4.46908e-031 2.38542e-015 1.07344e-014 4.73063e-006 1.07155e-005 5.15963e-006 7.95139e-016 7.95139e-016 -1.98785e-015 -4.46908e-031 2.38542e-015 1.07344e-014 0.0129265 0.00232826 -7.02746e-005 5.08165e-006 -1.73593e-006 -4.16664e-007 -4.46908e-031 2.38542e-015 1.07344e-014 0.0164175 0.00304672 -0.000873866 4.66603e-006 8.01502e-006 7.40279e-006 -4.46908e-031 2.38542e-015 1.07344e-014 0.0145742 0.00368325 -0.003251 1.69388e-006 -2.28499e-007 -1.38839e-007 -4.46908e-031 2.38542e-015 1.07344e-014 4.73063e-006 1.07155e-005 5.15963e-006 7.95139e-016 7.95139e-016 -1.98785e-015 -163.851 -77.6822 -162.67 4.74786 0.00232527 -0.379438 -5.67573 -2.5225 -7.1508 -4.25673e-007 -4.32722e-008 -1.49664e-009 162.706 -76.935 163.369 -5.7003 1.42076 0.393885 6.06961 -3.33426 5.40893 -3.10601e-016 9.65e-013 7.95139e-016 
39.8403 65.2182 48.6122 180 75.0041 -180 -0.321806 3.04871 -0.884479 -0.597642 6.10204 -1.75551 -0.597644 6.10207 -1.75552 -6.87643e-006 -9.34564 -1.25808e-005 -2.56353e-007 -15.99 1.14962e-007 -61.0455 41.7941 0.544134 55.186 4.76605 -41.6541 12.9251 -45.2375 2.88949 37.7674 -0.334752 9.22471 -1.59028e-015 -1.59028e-014 7.95139e-016 5.97032e-007 -1.85803e-006 -2.50854e-006 3.18055e-015 -6.36111e-015 1.59028e-015 -1.59028e-015 -1.59028e-014 7.95139e-016 -0.0128469 0.00233344 8.02441e-005 1.59028e-015 -9.54166e-015 1.59028e-015 -1.59028e-015 -1.59028e-014 7.95139e-016 -0.0160596 0.00300608 0.000848958 -3.53113e-031 -3.18055e-015 -6.36111e-015 -1.59028e-015 -1.59028e-014 7.95139e-016 -0.0126369 0.00313247 0.00283545 7.95139e-015 -9.54166e-015 -3.18055e-015 -1.59028e-015 -1.59028e-014 7.95139e-016 5.97032e-007 -1.85803e-006 -2.50854e-006 3.18055e-015 -6.36111e-015 1.59028e-015 61.8798 42.4751 -9.32999 -56.332 1.29623 44.7615 -15.873 -38.2368 -4.86385 -36.177 1.42298 -7.367 -7.95139e-016 -2.38542e-015 -4.57205e-015 -2.38542e-015 -3.97569e-015 -7.95139e-015 -7.95139e-016 -3.18055e-015 -8.34896e-015 -7.95139e-016 -2.38542e-015 -4.57205e-015 0.0129327 0.00232806 -7.90086e-005 -7.95139e-016 -1.59028e-015 -5.26779e-015 -7.95139e-016 -2.38542e-015 -4.57205e-015 0.0163123 0.00303191 -0.000868553 -1.59028e-015 2.38542e-015 8.05078e-015 -7.95139e-016 -2.38542e-015 -4.57205e-015 0.0145978 0.00367679 -0.00325853 -7.00161e-006 -6.23734e-006 -8.73526e-006 -7.95139e-016 -2.38542e-015 -4.57205e-015 -2.38542e-015 -3.97569e-015 -7.95139e-015 -7.95139e-016 -3.18055e-015 -8.34896e-015 -163.851 -77.6822 -162.67 4.74786 0.00229729 -0.379444 -5.67573 -2.5225 -7.1508 -4.25673e-007 6.39729e-008 -1.4967e-009 162.706 -76.935 163.369 -5.70033 1.42048 0.393895 6.06962 -3.33394 5.40891 -2.29719e-006 -2.42657e-008 -5.20036e-007 
39.8403 65.2182 48.6598 180 75.0041 -180 -0.324845 3.23955 -0.884928 -0.600892 6.48366 -1.75564 -0.600893 6.48368 -1.75564 -5.57215e-006 -10.1351 -6.9902e-006 -4.31739e-007 -16.696 -2.02076e-006 -60.9289 41.3626 -0.0150076 55.342 4.69356 -41.6316 12.7072 -44.4488 2.75264 38.0481 -0.96995 9.38377 9.32147e-007 2.27546e-006 -6.44583e-006 -5.40838e-007 -2.06949e-005 1.52252e-005 1.57129e-006 1.88902e-006 -5.58279e-007 9.32147e-007 2.27546e-006 -6.44583e-006 -0.0127464 0.00230335 9.71084e-005 -1.59028e-015 6.36111e-015 4.77083e-015 9.32147e-007 2.27546e-006 -6.44583e-006 -0.0160822 0.0030022 0.000866835 1.59028e-015 0 -5.56597e-015 9.32147e-007 2.27546e-006 -6.44583e-006 -0.0125621 0.00312816 0.00282649 -2.25409e-006 -1.07204e-005 4.1118e-006 9.32147e-007 2.27546e-006 -6.44583e-006 -5.40838e-007 -2.06949e-005 1.52252e-005 1.57129e-006 1.88902e-006 -5.58279e-007 61.8645 41.9713 -8.66994 -56.5267 1.22551 44.7203 -15.4779 -37.2651 -4.61548 -36.5279 0.707964 -7.68651 1.69397e-006 -1.99465e-008 -1.38743e-007 1.82508e-006 1.18478e-006 -4.62649e-006 3.38794e-006 -2.45461e-007 -2.77486e-007 1.69397e-006 -1.99465e-008 -1.38743e-007 0.0128862 0.0022985 -9.2072e-005 4.79586e-006 1.26285e-005 2.91335e-006 1.69397e-006 -1.99465e-008 -1.38743e-007 0.0164234 0.00304627 -0.000873523 1.76034e-006 -2.52674e-007 -2.38256e-006 1.69397e-006 -1.99465e-008 -1.38743e-007 0.0145991 0.00368367 -0.00326722 3.45423e-006 -2.66076e-007 -2.52127e-006 1.69397e-006 -1.99465e-008 -1.38743e-007 1.82508e-006 1.18478e-006 -4.62649e-006 3.38794e-006 -2.45461e-007 -2.77486e-007 -163.851 -77.6822 -162.67 4.74786 0.00232521 -0.379439 -5.67573 -2.5225 -7.1508 -4.25673e-007 6.39708e-008 -1.49664e-009 162.706 -76.935 163.369 -5.7003 1.42076 0.393885 6.06961 -3.33426 5.40893 4.25691e-007 1.17982e-007 1.42513e-009 
39.8403 65.2182 48.7073 180 75.0041 -180 -0.327883 3.43028 -0.885334 -0.604148 6.86519 -1.75569 -0.604149 6.8652 -1.75569 -8.99991e-006 -10.9246 -1.53975e-005 1.17512e-006 -17.402 -4.29777e-007 -60.8187 40.9305 -0.569138 55.4975 4.62275 -41.6088 12.4965 -43.6609 2.62202 38.3307 -1.60422 9.54589 3.18055e-015 -1.27222e-014 8.74653e-015 -3.18055e-015 -1.90833e-014 3.18055e-015 1.59028e-015 -1.27222e-014 -0 3.18055e-015 -1.27222e-014 8.74653e-015 -0.0127628 0.00231836 8.72685e-005 9.54166e-015 3.18055e-015 7.95139e-016 3.18055e-015 -1.27222e-014 8.74653e-015 -0.0159476 0.00297803 0.000850219 -0 0 1.19271e-014 3.18055e-015 -1.27222e-014 8.74653e-015 -0.0126064 0.00312946 0.0028334 4.77083e-015 0 2.38542e-015 3.18055e-015 -1.27222e-014 8.74653e-015 -3.18055e-015 -1.90833e-014 3.18055e-015 1.59028e-015 -1.27222e-014 -0 61.8572 41.4675 -8.01554 -56.7218 1.15293 44.6789 -15.0913 -36.2914 -4.37827 -36.8827 -0.00471769 -8.01026 7.95139e-016 2.38542e-015 1.78906e-015 1.59028e-015 7.95139e-016 4.96962e-015 -1.40306e-006 -2.2341e-006 -3.18824e-006 7.95139e-016 2.38542e-015 1.78906e-015 0.0129263 0.00232096 -8.14671e-005 3.32189e-006 -1.30965e-006 1.96759e-006 7.95139e-016 2.38542e-015 1.78906e-015 0.0163331 0.00304114 -0.00085994 -7.95139e-016 7.95139e-016 3.37934e-015 7.95139e-016 2.38542e-015 1.78906e-015 0.0145993 0.00368611 -0.00325865 1.69398e-006 -2.74281e-006 -1.38375e-007 7.95139e-016 2.38542e-015 1.78906e-015 1.59028e-015 7.95139e-016 4.96962e-015 -1.40306e-006 -2.2341e-006 -3.18824e-006 -163.851 -77.6822 -162.67 4.74786 0.00232525 -0.379439 -5.67573 -2.5225 -7.1508 -4.25673e-007 1.03493e-008 -1.49665e-009 162.706 -76.935 163.369 -5.7003 1.42077 0.393913 6.06961 -3.33426 5.40892 6.4605e-016 5.36191e-008 -0 
